<?xml version="1.0" encoding="iso-8859-1"?>
<!-- Uploaded to: SVG Repo, www.svgrepo.com, Generator: SVG Repo Mixer Tools -->
<svg height="800px" width="800px" version="1.1" id="Layer_1" xmlns="http://www.w3.org/2000/svg" xmlns:xlink="http://www.w3.org/1999/xlink"
	  viewBox="0 0 512 512" xml:space="preserve">
<circle style="fill:#733CB9;" cx="256" cy="256" r="256"/>
<circle style="fill:#FF507D;" cx="256" cy="256" r="104.296"/>
<g>
	<path style="fill:#8C50D7;" d="M256,407.704c-83.648,0-151.704-68.056-151.704-151.704c0-5.241,4.241-9.481,9.481-9.481
		s9.481,4.241,9.481,9.481c0,73.195,59.546,132.741,132.741,132.741c5.241,0,9.481,4.241,9.481,9.481S261.241,407.704,256,407.704z"
		/>
	<path style="fill:#8C50D7;" d="M398.222,265.481c-5.241,0-9.481-4.241-9.481-9.481c0-73.195-59.546-132.741-132.741-132.741
		c-5.241,0-9.481-4.245-9.481-9.481s4.241-9.481,9.481-9.481c83.648,0,151.704,68.056,151.704,151.704
		C407.704,261.241,403.463,265.481,398.222,265.481z"/>
	<path style="fill:#8C50D7;" d="M256,445.63c-104.565,0-189.63-85.064-189.63-189.63c0-5.241,4.241-9.481,9.481-9.481
		c5.241,0,9.481,4.241,9.481,9.481c0,94.101,76.565,170.667,170.667,170.667c5.241,0,9.481,4.241,9.481,9.482
		C265.481,441.389,261.241,445.63,256,445.63z"/>
	<path style="fill:#8C50D7;" d="M436.148,265.481c-5.241,0-9.482-4.241-9.482-9.481c0-94.101-76.565-170.667-170.667-170.667
		c-5.241,0-9.481-4.245-9.481-9.481s4.241-9.481,9.481-9.481c104.565,0,189.63,85.069,189.63,189.63
		C445.63,261.241,441.389,265.481,436.148,265.481z"/>
	<path style="fill:#8C50D7;" d="M256,483.556C130.528,483.556,28.444,381.472,28.444,256c0-5.241,4.241-9.481,9.481-9.481
		s9.481,4.241,9.481,9.481c0,115.019,93.574,208.593,208.593,208.593c5.241,0,9.481,4.241,9.481,9.481
		C265.481,479.315,261.241,483.556,256,483.556z"/>
	<path style="fill:#8C50D7;" d="M474.074,265.481c-5.241,0-9.481-4.241-9.481-9.481c0-115.019-93.574-208.593-208.593-208.593
		c-5.241,0-9.481-4.245-9.481-9.481s4.241-9.481,9.481-9.481c125.472,0,227.556,102.084,227.556,227.556
		C483.556,261.241,479.315,265.481,474.074,265.481z"/>
</g>
<path style="fill:#FFDC64;" d="M270.222,250.111v-97.326c-4.663-0.638-9.384-1.082-14.222-1.082s-9.56,0.444-14.222,1.082v97.326
	l-68.814,68.814c5.762,7.59,12.52,14.349,20.111,20.111l48.703-48.703v68.882c4.663,0.638,9.384,1.082,14.222,1.082
	s9.56-0.444,14.222-1.082v-68.882l48.703,48.703c7.59-5.762,14.349-12.52,20.111-20.111L270.222,250.111z"/>
<circle style="fill:#AFB9D2;" cx="256" cy="256" r="18.963"/>
</svg>
