<svg width="20" height="18" viewBox="0 0 20 18" fill="none" xmlns="http://www.w3.org/2000/svg">
<path fill-rule="evenodd" clip-rule="evenodd" d="M7.0867 1.24876e-07C7.60432 -0.000153834 8.11258 0.142056 8.55459 0.411794C8.99678 0.681635 9.3558 1.06888 9.58989 1.53144C9.58992 1.53151 9.58985 1.53137 9.58989 1.53144L10.3945 3.12078C10.4594 3.24911 10.5603 3.35902 10.6871 3.43644C10.8139 3.51391 10.9613 3.55554 11.1124 3.55556C11.1124 3.55556 11.1124 3.55556 11.1124 3.55556H17.2C17.9386 3.55556 18.6495 3.84523 19.1755 4.36477C19.7019 4.88472 20 5.59258 20 6.33333V15.2222C20 15.963 19.7019 16.6708 19.1755 17.1908C18.6495 17.7103 17.9386 18 17.2 18H2.8C2.06137 18 1.35054 17.7103 0.824506 17.1908C0.298056 16.6708 0 15.963 0 15.2222V2.77778C0 2.03703 0.298056 1.32917 0.824506 0.809214C1.35054 0.289679 2.06137 1.24876e-07 2.8 1.24876e-07H7.0867C7.08676 1.24876e-07 7.08664 1.24876e-07 7.0867 1.24876e-07ZM7.51277 2.11901C7.38579 2.04153 7.23837 1.99993 7.08716 2L2.8 2C2.58385 2 2.37901 2.08492 2.22991 2.23218C2.08123 2.37903 2 2.57554 2 2.77778V15.2222C2 15.4245 2.08123 15.621 2.22991 15.7678C2.37901 15.9151 2.58385 16 2.8 16H17.2C17.4162 16 17.621 15.9151 17.7701 15.7678C17.9188 15.621 18 15.4245 18 15.2222V6.33333C18 6.13109 17.9188 5.93459 17.7701 5.78774C17.621 5.64048 17.4162 5.55556 17.2 5.55556H11.1124C10.5949 5.55554 10.0867 5.4132 9.64481 5.1434C9.20283 4.87353 8.84398 4.48634 8.61 4.0239L7.80551 2.43478C7.74055 2.30638 7.63964 2.19644 7.51277 2.11901Z" fill="white"/>
</svg>
