<svg width="20" height="18" viewBox="0 0 20 18" fill="none" xmlns="http://www.w3.org/2000/svg">
<path fill-rule="evenodd" clip-rule="evenodd" d="M3.1288 3.07022C2.48566 3.74241 2 4.79425 2 6.32646C2 7.33665 2.44501 8.45223 3.23364 9.61406C4.0152 10.7655 5.07635 11.8771 6.16842 12.8585C7.25623 13.8361 8.3485 14.6612 9.17113 15.2429C9.49687 15.4733 9.77896 15.6645 10 15.8109C10.221 15.6645 10.5031 15.4733 10.8289 15.2429C11.6515 14.6612 12.7438 13.8361 13.8316 12.8585C14.9236 11.8771 15.9848 10.7655 16.7664 9.61406C17.555 8.45223 18 7.33665 18 6.32646C18 4.84882 17.5193 3.81989 16.8747 3.15281C16.2204 2.4758 15.3419 2.11358 14.4534 2.07214C13.5623 2.03059 12.7011 2.31278 12.0723 2.87431C11.459 3.422 11 4.2945 11 5.57946C11 6.13174 10.5523 6.57946 10 6.57946C9.44772 6.57946 9 6.13174 9 5.57946C9 4.29395 8.54024 3.4057 7.92057 2.84157C7.28658 2.26442 6.42286 1.97023 5.53621 2.00236C4.65276 2.03437 3.78011 2.38948 3.1288 3.07022ZM10.0056 2.20257C9.78888 1.89286 9.54118 1.61229 9.26694 1.36262C8.21342 0.403548 6.82714 -0.0457293 5.46379 0.0036686C4.09725 0.0531824 2.71989 0.60458 1.6837 1.68758C0.639335 2.77913 0 4.34826 0 6.32646C0 7.90173 0.679987 9.41307 1.57886 10.7373C2.4848 12.072 3.67365 13.3055 4.83158 14.3461C5.99377 15.3905 7.1515 16.2643 8.01637 16.8759C8.4497 17.1823 8.8117 17.4245 9.06686 17.591C9.19449 17.6742 9.29553 17.7387 9.36555 17.7828C9.40057 17.8049 9.42785 17.8219 9.44683 17.8337L9.46902 17.8474L9.47533 17.8513L9.47726 17.8525L9.47792 17.8529C9.47816 17.853 9.47837 17.8532 10 17L9.47837 17.8532C9.79857 18.0489 10.2014 18.0489 10.5216 17.8532L10 17C10.5216 17.8532 10.5218 17.853 10.5221 17.8529L10.5227 17.8525L10.5247 17.8513L10.531 17.8474L10.5532 17.8337C10.5722 17.8219 10.5994 17.8049 10.6344 17.7828C10.7045 17.7387 10.8055 17.6742 10.9331 17.591C11.1883 17.4245 11.5503 17.1823 11.9836 16.8759C12.8485 16.2643 14.0062 15.3905 15.1684 14.3461C16.3264 13.3055 17.5152 12.072 18.4211 10.7373C19.32 9.41307 20 7.90173 20 6.32646C20 4.3873 19.3557 2.84208 18.3128 1.76297C17.2796 0.693801 15.9081 0.137807 14.5466 0.0743135C13.1877 0.0109402 11.7989 0.437105 10.7402 1.38255C10.4676 1.62594 10.2213 1.89984 10.0056 2.20257Z" fill="white"/>
</svg>
